<?xml version="1.0" standalone="no"?>
<!DOCTYPE svg PUBLIC "-//W3C//DTD SVG 20010904//EN"
 "http://www.w3.org/TR/2001/REC-SVG-20010904/DTD/svg10.dtd">
<svg version="1.0" xmlns="http://www.w3.org/2000/svg"
 width="500.000000pt" height="500.000000pt" viewBox="0 0 500.000000 500.000000"
 preserveAspectRatio="xMidYMid meet">
<metadata>
Created by potrace 1.11, written by Peter Selinger 2001-2013
</metadata>
<g transform="translate(0.000000,500.000000) scale(0.100000,-0.100000)"
fill="#000000" stroke="none">
<path d="M2312 4494 l-182 -106 0 -944 c0 -840 3 -985 22 -935 2 5 176 208
387 450 l383 441 290 0 290 0 -321 -329 -322 -329 277 -444 c152 -243 280
-448 285 -453 4 -6 1 -30 -8 -56 -40 -111 44 -229 164 -229 73 0 119 23 154
79 68 107 8 250 -117 276 -28 5 -54 43 -278 401 l-247 394 38 43 c21 24 206
218 412 431 l373 386 47 -26 c25 -15 74 -43 108 -63 l63 -36 0 -931 0 -932
-222 -133 c-122 -73 -227 -132 -233 -131 -5 0 -28 6 -51 12 -103 29 -224 -65
-224 -175 0 -49 35 -111 81 -144 103 -75 252 -14 278 112 6 29 30 45 279 192
l272 160 0 1040 0 1040 -38 21 c-20 11 -425 246 -900 522 -475 276 -866 502
-870 502 -4 0 -89 -48 -190 -106z m873 -499 c374 -217 687 -399 695 -404 10
-7 -164 -10 -516 -10 l-531 -1 -259 -299 c-142 -165 -261 -300 -264 -300 -3
-1 -4 293 -3 651 l2 653 88 53 c48 28 92 52 98 52 5 0 316 -178 690 -395z
m448 -2213 c22 -19 22 -70 0 -94 -16 -18 -68 -24 -89 -10 -43 29 -38 97 9 117
33 14 52 11 80 -13z m0 -580 c22 -19 22 -70 0 -94 -16 -18 -68 -24 -89 -10
-21 13 -34 52 -28 77 12 49 75 64 117 27z"/>
<path d="M1834 4320 c-72 -16 -130 -75 -141 -142 -5 -35 -10 -38 -504 -313
l-499 -277 0 -1056 0 -1057 297 -177 c164 -97 567 -337 896 -532 330 -196 602
-356 607 -356 4 0 207 119 451 265 244 146 448 266 454 268 5 2 -9 32 -31 68
-22 35 -224 360 -448 721 l-407 657 -199 -202 -199 -202 -1 -217 0 -218 -225
0 -225 0 0 848 0 848 29 22 c36 26 71 97 71 143 -1 156 -199 240 -309 130 -72
-72 -77 -170 -10 -245 l29 -34 0 -946 0 -946 410 0 410 0 0 268 0 269 93 98
92 98 315 -509 c173 -279 325 -524 337 -544 l22 -37 -329 -197 c-181 -109
-333 -196 -337 -193 -5 2 -369 219 -811 482 l-802 477 2 950 3 950 450 253
c447 250 450 252 482 238 44 -18 90 -16 139 6 107 48 138 190 62 277 -49 56
-111 78 -174 64z m86 -130 c62 -62 -35 -154 -100 -95 -24 22 -26 71 -3 97 22
24 77 24 103 -2z m-287 -742 c50 -68 -48 -141 -108 -82 -20 21 -19 73 2 96 25
28 80 20 106 -14z"/>
</g>
</svg>
