<?xml version="1.0"?>
<svg xmlns="http://www.w3.org/2000/svg" xmlns:xlink="http://www.w3.org/1999/xlink" version="1.1" viewBox="0 0 224 224" width="48px" height="48px"><g fill="none" fill-rule="nonzero" stroke="none" stroke-width="1" stroke-linecap="butt" stroke-linejoin="miter" stroke-miterlimit="10" stroke-dasharray="" stroke-dashoffset="0" font-family="none" font-weight="none" font-size="none" text-anchor="none" style="mix-blend-mode: normal"><path d="M0,224v-224h224v224z" fill="none"/><path d="M112,224c-61.85589,0 -112,-50.14411 -112,-112v0c0,-61.85589 50.14411,-112 112,-112v0c61.85589,0 112,50.14411 112,112v0c0,61.85589 -50.14411,112 -112,112z" fill="#ff6f00"/><g id="Layer_1"><g fill="#000000" font-family="-apple-system, BlinkMacSystemFont, San Francisco, HelveticaNeue-Light, Helvetica Neue Light, Helvetica Neue, Segoe UI, Fira Sans, Roboto, Oxygen, Ubuntu, Droid Sans, Arial, sans-serif" font-weight="400" font-size="16" text-anchor="start"/><path d="M166.6,187.6h-109.2c-11.5962,0 -21,-9.4038 -21,-21v-109.2c0,-11.5962 9.4038,-21 21,-21h109.2c11.5962,0 21,9.4038 21,21v109.2c0,11.5962 -9.4038,21 -21,21z" fill="#ff6f00"/><path d="M151.9,103.6h-4.2c-3.4776,0 -6.3,-2.8224 -6.3,-6.3v-2.1c0,-16.2372 -13.1628,-29.4 -29.4,-29.4h-16.8c-16.2372,0 -29.4,13.1628 -29.4,29.4v33.6c0,16.2372 13.1628,29.4 29.4,29.4h33.6c16.2372,0 29.4,-13.1628 29.4,-29.4v-18.9c0,-3.4776 -2.8224,-6.3 -6.3,-6.3zM95.2,91h21c2.3226,0 4.2,1.8816 4.2,4.2c0,2.3184 -1.8774,4.2 -4.2,4.2h-21c-2.3226,0 -4.2,-1.8816 -4.2,-4.2c0,-2.3184 1.8774,-4.2 4.2,-4.2zM128.8,133h-33.6c-2.3226,0 -4.2,-1.8816 -4.2,-4.2c0,-2.3184 1.8774,-4.2 4.2,-4.2h33.6c2.3226,0 4.2,1.8816 4.2,4.2c0,2.3184 -1.8774,4.2 -4.2,4.2z" fill="#ffffff"/></g></g></svg>
