<?xml version="1.0"?>
<svg xmlns="http://www.w3.org/2000/svg" xmlns:xlink="http://www.w3.org/1999/xlink" version="1.1" viewBox="0 0 224 224" width="48px" height="48px"><g fill="none" fill-rule="nonzero" stroke="none" stroke-width="1" stroke-linecap="butt" stroke-linejoin="miter" stroke-miterlimit="10" stroke-dasharray="" stroke-dashoffset="0" font-family="none" font-weight="none" font-size="none" text-anchor="none" style="mix-blend-mode: normal"><path d="M0,224v-224h224v224z" fill="none"/><path d="M112,224c-61.85589,0 -112,-50.14411 -112,-112v0c0,-61.85589 50.14411,-112 112,-112v0c61.85589,0 112,50.14411 112,112v0c0,61.85589 -50.14411,112 -112,112z" fill="#37474f"/><g id="Layer_1"><rect x="8.66667" y="8.66667" transform="scale(4.2,4.2)" width="36" height="36" fill="#37474f"/><path d="M154.6132,79.3618l7.7868,-7.7868v-1.575h-27.8712l-20.664,49.5222l-21.7728,-49.5222h-30.492v1.575l7.9128,9.4962c0.315,0.378 0.4872,0.8526 0.4872,1.344v51.6012c0,0.7686 -0.2646,1.512 -0.7434,2.1084l-9.7566,12.096v1.5792h29.4v-1.575l-9.765,-12.2052c-0.4746,-0.5964 -0.735,-1.3356 -0.735,-2.1v-44.0748l26.733,59.955h5.292l22.575,-54.2514v42.357c0,0.5586 -0.2226,1.092 -0.6132,1.4826l-8.8368,8.8368v1.575h38.85v-1.575l-7.7868,-7.7868c-0.3906,-0.3906 -0.6132,-0.924 -0.6132,-1.4826v-58.1112c0,-0.5586 0.2226,-1.092 0.6132,-1.4826z" fill="#ffffff"/></g><path d="M112,224c-61.85589,0 -112,-50.14411 -112,-112v0c0,-61.85589 50.14411,-112 112,-112v0c61.85589,0 112,50.14411 112,112v0c0,61.85589 -50.14411,112 -112,112z" fill="none"/><path d="M112,219.52c-59.38166,0 -107.52,-48.13834 -107.52,-107.52v0c0,-59.38166 48.13834,-107.52 107.52,-107.52h0c59.38166,0 107.52,48.13834 107.52,107.52v0c0,59.38166 -48.13834,107.52 -107.52,107.52z" fill="none"/></g></svg>
